<mxfile host="app.diagrams.net" modified="2023-09-26T23:56:45.567Z" agent="Mozilla/5.0 (Macintosh; Intel Mac OS X 10_15_7) AppleWebKit/537.36 (KHTML, like Gecko) Chrome/117.0.0.0 Safari/537.36" etag="1Aas-8DAxeqj0S0z146T" version="21.8.1" type="github">
  <diagram name="Page-1" id="DsPEkRyGwzdsE6RfCtM_">
    <mxGraphModel dx="2954" dy="1157" grid="1" gridSize="10" guides="1" tooltips="1" connect="1" arrows="1" fold="1" page="1" pageScale="1" pageWidth="850" pageHeight="1100" math="0" shadow="0">
      <root>
        <mxCell id="0" />
        <mxCell id="1" parent="0" />
        <mxCell id="5yydzWwEhr3Qjatm-HlD-1" value="frame 1" style="shape=parallelogram;perimeter=parallelogramPerimeter;whiteSpace=wrap;html=1;fixedSize=1;" vertex="1" parent="1">
          <mxGeometry x="220" y="100" width="120" height="60" as="geometry" />
        </mxCell>
        <mxCell id="5yydzWwEhr3Qjatm-HlD-2" value="frame 2" style="shape=parallelogram;perimeter=parallelogramPerimeter;whiteSpace=wrap;html=1;fixedSize=1;" vertex="1" parent="1">
          <mxGeometry x="220" y="180" width="120" height="60" as="geometry" />
        </mxCell>
        <mxCell id="5yydzWwEhr3Qjatm-HlD-3" value="frame 3" style="shape=parallelogram;perimeter=parallelogramPerimeter;whiteSpace=wrap;html=1;fixedSize=1;" vertex="1" parent="1">
          <mxGeometry x="220" y="260" width="120" height="60" as="geometry" />
        </mxCell>
        <mxCell id="5yydzWwEhr3Qjatm-HlD-4" value="" style="endArrow=classic;html=1;rounded=0;" edge="1" parent="1">
          <mxGeometry width="50" height="50" relative="1" as="geometry">
            <mxPoint x="400" y="100" as="sourcePoint" />
            <mxPoint x="400" y="320" as="targetPoint" />
          </mxGeometry>
        </mxCell>
        <mxCell id="5yydzWwEhr3Qjatm-HlD-5" value="maximum over time" style="text;html=1;strokeColor=none;fillColor=none;align=center;verticalAlign=middle;whiteSpace=wrap;rounded=0;" vertex="1" parent="1">
          <mxGeometry x="410" y="195" width="60" height="30" as="geometry" />
        </mxCell>
        <mxCell id="5yydzWwEhr3Qjatm-HlD-6" value="MIP" style="shape=parallelogram;perimeter=parallelogramPerimeter;whiteSpace=wrap;html=1;fixedSize=1;" vertex="1" parent="1">
          <mxGeometry x="510" y="180" width="120" height="60" as="geometry" />
        </mxCell>
      </root>
    </mxGraphModel>
  </diagram>
</mxfile>
